# xmcd CD database file
#
# Track frame offsets:
#	150
#	34420
#	58700
#	91865
#	117942
#	143400
#	167705
#	190140
#	213765
#	241637
#	263265
#	284377
#
# Disc length: 4083 seconds
#
# Revision: 1
# Processed by: cddbd v1.5.1PL0 Copyright (c) Steve Scherf et al.
# Submitted via: CDex 1.51
#
DISCID=990ff10c
DTITLE=MASAYA - Masaya BGM Collection ~Piano Instrumental~
DYEAR=1996
DGENRE=New Age
TTITLE0=儚き命の詩
TTITLE1=残華
TTITLE2=大地にて
TTITLE3=風に吹かれて
TTITLE4=森と風の旅人
TTITLE5=友へ
TTITLE6=伝言
TTITLE7=故国へ
TTITLE8=奇跡の子
TTITLE9=世界よ止まれ
TTITLE10=胸いっぱいの言えぬ想い
TTITLE11=旅立ち
EXTD=YEAR: 1996
EXTT0=
EXTT1=
EXTT2=
EXTT3=
EXTT4=
EXTT5=
EXTT6=
EXTT7=
EXTT8=
EXTT9=
EXTT10=
EXTT11=
PLAYORDER=
